<svg xmlns="http://www.w3.org/2000/svg" viewBox="0 0 1024 1024">
  <defs><linearGradient id="g" x1="0" y1="0" x2="0" y2="1"><stop offset="0" stop-color="#ffa20f"/><stop offset="1" stop-color="#ff2d55"/></linearGradient></defs>
  <rect width="1024" height="1024" rx="230" fill="url(#g)"/>
  <path fill="#fff" d="M428.0 732.0 L428.0 292.0 A84 84 0 0 1 596.0 292.0 L596.0 732.0 A84 84 0 0 1 428.0 732.0 Z M279.5 549.3 L660.5 329.3 A84 84 0 0 1 744.5 474.7 L363.5 694.7 A84 84 0 0 1 279.5 549.3 Z M363.5 329.3 L744.5 549.3 A84 84 0 0 1 660.5 694.7 L279.5 474.7 A84 84 0 0 1 363.5 329.3 Z"/>
</svg>
